<svg xmlns="http://www.w3.org/2000/svg" viewBox="0 0 900 1500" width="100%" height="100%">
  <defs>
    <!-- Background Gradient -->
    <linearGradient id="bgGrad2" x1="0%" y1="0%" x2="100%" y2="100%">
      <stop offset="0%" stop-color="#070a12" />
      <stop offset="35%" stop-color="#120e18" />
      <stop offset="75%" stop-color="#0f172a" />
      <stop offset="100%" stop-color="#05070d" />
    </linearGradient>

    <!-- Card Background Gradient -->
    <linearGradient id="cardGrad2" x1="0%" y1="0%" x2="0%" y2="100%">
      <stop offset="0%" stop-color="#1e293b" stop-opacity="0.8" />
      <stop offset="100%" stop-color="#0f172a" stop-opacity="0.95" />
    </linearGradient>

    <!-- TouChef Copper Gradient -->
    <linearGradient id="tcCopperGrad2" x1="0%" y1="0%" x2="100%" y2="100%">
      <stop offset="0%" stop-color="#F4A261" />
      <stop offset="100%" stop-color="#E07A5F" />
    </linearGradient>

    <!-- Pathogen Curve Gradients -->
    <linearGradient id="gradListeria" x1="0%" y1="0%" x2="100%" y2="100%">
      <stop offset="0%" stop-color="#0284c7" />
      <stop offset="100%" stop-color="#38bdf8" />
    </linearGradient>
    <linearGradient id="gradSalmonella" x1="0%" y1="0%" x2="100%" y2="100%">
      <stop offset="0%" stop-color="#e11d48" />
      <stop offset="50%" stop-color="#f43f5e" />
      <stop offset="100%" stop-color="#fb7185" />
    </linearGradient>

    <!-- Glow Filters -->
    <filter id="glowCyan" x="-20%" y="-20%" width="140%" height="140%">
      <feGaussianBlur stdDeviation="3" result="blur" />
      <feMerge><feMergeNode in="blur" /><feMergeNode in="SourceGraphic" /></feMerge>
    </filter>
    <filter id="glowRose" x="-20%" y="-20%" width="140%" height="140%">
      <feGaussianBlur stdDeviation="3" result="blur" />
      <feMerge><feMergeNode in="blur" /><feMergeNode in="SourceGraphic" /></feMerge>
    </filter>
    <filter id="cardShadow2" x="-10%" y="-10%" width="120%" height="120%">
      <feDropShadow dx="0" dy="8" stdDeviation="12" flood-color="#000000" flood-opacity="0.6" />
    </filter>
  </defs>

  <style>
    .header-title { font-family: 'Segoe UI', -apple-system, BlinkMacSystemFont, 'Inter', Roboto, sans-serif; font-size: 23px; font-weight: 800; fill: #F4F1DE; letter-spacing: 0.5px; }
    .header-sub { font-family: 'Segoe UI', sans-serif; font-size: 13px; font-weight: 500; fill: #94a3b8; }
    .badge-mono { font-family: 'JetBrains Mono', 'Fira Code', Consolas, monospace; font-size: 11px; font-weight: 700; }
    .sec-title { font-family: 'Segoe UI', sans-serif; font-size: 15px; font-weight: 700; fill: #f8fafc; letter-spacing: 0.3px; }
    .body-txt { font-family: 'Segoe UI', sans-serif; font-size: 12px; fill: #cbd5e1; line-height: 1.5; }
    .formula-txt { font-family: 'Cambria Math', 'Times New Roman', serif; font-size: 14px; font-style: italic; fill: #38bdf8; }
    .axis-label { font-family: 'Segoe UI', sans-serif; font-size: 12px; font-weight: 600; fill: #94a3b8; }
    .tick-mono { font-family: 'JetBrains Mono', monospace; font-size: 11px; fill: #64748b; }
    .card-title { font-family: 'Segoe UI', sans-serif; font-size: 13px; font-weight: 700; fill: #f1f5f9; }
    .grid-line { stroke: #1e293b; stroke-width: 1; stroke-dasharray: 4 4; }
    .axis-line { stroke: #334155; stroke-width: 1.5; }
  </style>

  <!-- Canvas Background -->
  <rect width="900" height="1500" fill="url(#bgGrad2)" />

  <!-- Outer Poster Border -->
  <rect x="18" y="18" width="864" height="1464" rx="16" fill="none" stroke="#1e293b" stroke-width="1.5" />

  <!-- ==================== HEADER SECTION ==================== -->
  <g transform="translate(36, 36)">
    <!-- TouChef Official Isotype Squircle -->
    <rect x="0" y="0" width="56" height="56" rx="16" fill="#141824" stroke="rgba(255, 255, 255, 0.15)" stroke-width="1.2" />
    <circle cx="28" cy="28" r="16" fill="#E07A5F" opacity="0.22" />
    <!-- Chef Toque Icon -->
    <path d="M28 13 C24 13 21 16 20.5 19.5 C17.5 20 15.5 22.5 15.5 26 C15.5 29.5 17.5 32 20.5 32.8 V36.5 C20.5 37.5 21.5 38 22.5 38 H33.5 C34.5 38 35.5 37.5 35.5 36.5 V32.8 C38.5 32 40.5 29.5 40.5 26 C40.5 22.5 38.5 20 35.5 19.5 C35 16 32 13 28 13 Z" fill="url(#tcCopperGrad2)" />
    <path d="M24 21 C24 26 24.5 32 24.5 36.5 M32 21 C32 26 31.5 32 31.5 36.5" stroke="#0E0F12" stroke-width="1.5" stroke-linecap="round" opacity="0.35" />
    <rect x="21" y="39.5" width="14" height="3.5" rx="1.7" fill="#F4F1DE" />

    <!-- Wordmark & Titles -->
    <text x="72" y="25" class="header-title">
      <tspan fill="#F4F1DE" font-weight="900">Tou</tspan><tspan fill="#E07A5F" font-weight="700">Chef</tspan>
      <tspan fill="#475569" font-weight="400"> ❘ </tspan>
      <tspan fill="#F4F1DE" font-size="20" font-weight="800">CINÉTICA DE PASTEURIZACIÓN 6D / 7D</tspan>
    </text>
    <text x="72" y="47" class="header-sub">Microbiología Predictiva, Valores D, z y Letalidad Térmica Acumulada P</text>

    <!-- Top Badges -->
    <g transform="translate(640, 10)">
      <rect x="0" y="0" width="188" height="28" rx="14" fill="#065f46" fill-opacity="0.35" stroke="#10b981" stroke-width="1" />
      <circle cx="14" cy="14" r="4.5" fill="#10b981" />
      <text x="26" y="18" class="badge-mono" fill="#34d399">FDA &amp; USDA-FSIS 7D</text>
    </g>
  </g>

  <!-- ==================== SECCIÓN 1: FUNDAMENTO MATEMÁTICO & VALORES D / z ==================== -->
  <g transform="translate(36, 115)" filter="url(#cardShadow2)">
    <rect width="828" height="160" rx="12" fill="url(#cardGrad2)" stroke="#334155" stroke-width="1" />
    
    <text x="20" y="26" class="sec-title" fill="#38bdf8">1. MODELO LOG-LINEAL DE BIGELOW &amp; INTEGRAL DE LETALIDAD (VALOR P)</text>
    
    <!-- Block 1: Bigelow Model & D value -->
    <g transform="translate(20, 38)">
      <rect width="255" height="102" rx="8" fill="#0b1120" stroke="#1e293b" />
      <text x="12" y="20" class="card-title" font-size="11" fill="#94a3b8">Cinética de Primer Orden (D_T):</text>
      <text x="12" y="44" class="formula-txt" font-size="14">log₁₀(N₀ / N_t) = t / D_T</text>
      <text x="12" y="66" class="tick-mono" fill="#cbd5e1"><tspan fill="#38bdf8" font-weight="700">1 D = 90%</tspan> destrucción celular</text>
      <text x="12" y="84" class="tick-mono" fill="#64748b">k_d = ln(10) / D_T ≈ 2.303 / D_T</text>
    </g>

    <!-- Block 2: Z value definition -->
    <g transform="translate(285, 38)">
      <rect width="255" height="102" rx="8" fill="#0b1120" stroke="#1e293b" />
      <text x="12" y="20" class="card-title" font-size="11" fill="#F4A261">Sensibilidad Térmica (Valor z):</text>
      <text x="12" y="44" class="formula-txt" font-size="14" fill="#F4A261">D(T) = D_ref · 10^-(ΔT / z)</text>
      <text x="12" y="66" class="tick-mono" fill="#cbd5e1">Listeria: <tspan fill="#38bdf8" font-weight="700">z = 7.5°C</tspan> (T_ref=60°C)</text>
      <text x="12" y="84" class="tick-mono" fill="#cbd5e1">Salmonella: <tspan fill="#f43f5e" font-weight="700">z = 5.5°C</tspan> (T_ref=60°C)</text>
    </g>

    <!-- Block 3: Accumulated Lethality Integral P -->
    <g transform="translate(550, 38)">
      <rect width="258" height="102" rx="8" fill="#0b1120" stroke="#1e293b" />
      <text x="12" y="20" class="card-title" font-size="11" fill="#34d399">Letalidad Acumulada (P_60^z):</text>
      <text x="12" y="44" class="formula-txt" font-size="14" fill="#34d399">P = ∫ 10^((T(t) - 60) / z) dt</text>
      <text x="12" y="66" class="tick-mono" fill="#cbd5e1">Condición Pasteurización Segura:</text>
      <text x="12" y="84" class="tick-mono" fill="#34d399" font-weight="700">P_acumulado ≥ n · D_60 (n=6 ó 7)</text>
    </g>
  </g>

  <!-- ==================== SECCIÓN 2: GRÁFICO DE SUPERVIVENCIA LOGARÍTMICA ==================== -->
  <g transform="translate(36, 295)" filter="url(#cardShadow2)">
    <rect width="828" height="530" rx="12" fill="url(#cardGrad2)" stroke="#334155" stroke-width="1" />

    <!-- Chart Header -->
    <g transform="translate(24, 22)">
      <text x="0" y="16" class="sec-title" fill="#F4F1DE">2. CURVAS DE DECAIMIENTO LOGARÍTMICO A 60.0°C CONSTANTE</text>
      <text x="0" y="34" class="body-txt" fill="#94a3b8">Evolución de la carga bacteriana (Log₁₀ UFC/g) vs tiempo de residencia isotérmica</text>
      
      <!-- Legends -->
      <g transform="translate(420, 0)">
        <rect x="0" y="0" width="175" height="26" rx="6" fill="#0369a1" fill-opacity="0.35" stroke="#38bdf8" stroke-width="1" />
        <circle cx="12" cy="13" r="4" fill="#38bdf8" />
        <text x="22" y="17" class="badge-mono" fill="#7dd3fc">Listeria 6D (Carnes/Pesc.)</text>

        <rect x="185" y="0" width="185" height="26" rx="6" fill="#881337" fill-opacity="0.35" stroke="#f43f5e" stroke-width="1" />
        <circle cx="197" cy="13" r="4" fill="#f43f5e" />
        <text x="207" y="17" class="badge-mono" fill="#fda4af">Salmonella 7D (Aves 9 CFR)</text>
      </g>
    </g>

    <!-- Canvas Plot Area: X: 80 to 760 (width 680), Y: 90 to 440 (height 350) -->
    <g transform="translate(20, 15)">
      <!-- Y-Axis Grid Lines & Log Ticks -->
      <line x1="80" y1="100" x2="760" y2="100" class="axis-line" />
      <text x="70" y="104" class="tick-mono" text-anchor="end" font-weight="700">10⁷ (7 Log)</text>

      <line x1="80" y1="146" x2="760" y2="146" class="grid-line" />
      <text x="70" y="150" class="tick-mono" text-anchor="end">10⁶ (6 Log)</text>

      <line x1="80" y1="191" x2="760" y2="191" class="grid-line" />
      <text x="70" y="195" class="tick-mono" text-anchor="end">10⁵ (5 Log)</text>

      <line x1="80" y1="237" x2="760" y2="237" class="grid-line" />
      <text x="70" y="241" class="tick-mono" text-anchor="end">10⁴ (4 Log)</text>

      <line x1="80" y1="283" x2="760" y2="283" class="grid-line" />
      <text x="70" y="287" class="tick-mono" text-anchor="end">10³ (3 Log)</text>

      <line x1="80" y1="329" x2="760" y2="329" class="grid-line" />
      <text x="70" y="333" class="tick-mono" text-anchor="end">10² (2 Log)</text>

      <line x1="80" y1="374" x2="760" y2="374" class="grid-line" />
      <text x="70" y="378" class="tick-mono" text-anchor="end">10¹ (1 Log)</text>

      <line x1="80" y1="420" x2="760" y2="420" class="axis-line" stroke="#10b981" />
      <text x="70" y="424" class="tick-mono" text-anchor="end" fill="#34d399" font-weight="700">10⁰ (0 Log / 1 UFC)</text>

      <!-- X-Axis Ticks (Time in Minutes) -->
      <line x1="80" y1="420" x2="80" y2="100" class="grid-line" />
      <text x="80" y="442" class="tick-mono" text-anchor="middle">0'</text>

      <line x1="193" y1="420" x2="193" y2="100" class="grid-line" />
      <text x="193" y="442" class="tick-mono" text-anchor="middle">10'</text>

      <line x1="307" y1="420" x2="307" y2="100" class="grid-line" />
      <text x="307" y="442" class="tick-mono" text-anchor="middle">20'</text>

      <line x1="420" y1="420" x2="420" y2="100" class="grid-line" />
      <text x="420" y="442" class="tick-mono" text-anchor="middle">30'</text>

      <line x1="533" y1="420" x2="533" y2="100" class="grid-line" />
      <text x="533" y="442" class="tick-mono" text-anchor="middle">40'</text>

      <line x1="647" y1="420" x2="647" y2="100" class="grid-line" />
      <text x="647" y="442" class="tick-mono" text-anchor="middle">50'</text>

      <line x1="760" y1="420" x2="760" y2="100" class="grid-line" />
      <text x="760" y="442" class="tick-mono" text-anchor="middle">60'</text>

      <text x="420" y="468" class="axis-label" text-anchor="middle">TIEMPO DE MANTENIMIENTO ISOTÉRMICO A 60.0°C (minutos)</text>
      <text x="20" y="80" class="axis-label">POBLACIÓN (UFC/g)</text>

      <!-- Shaded Safe Zone -->
      <rect x="556" y="100" width="204" height="320" fill="#10b981" fill-opacity="0.05" />
      <text x="660" y="125" class="badge-mono" fill="#10b981" text-anchor="middle">ZONA ESTÉRIL COMERCIAL</text>

      <!-- ================= PATHS ================= -->
      <!-- Salmonella 7D Curve (0m:100 -> 6m:146 -> 12m:191 -> 18m:237 -> 24m:283 -> 30m:329 -> 36m:374 -> 42m:420) -->
      <path d="M 80 100 L 148 146 L 216 191 L 284 237 L 352 283 L 420 329 L 488 374 L 556 420" fill="none" stroke="url(#gradSalmonella)" stroke-width="4" filter="url(#glowRose)" />

      <!-- Listeria 6D Curve (0m:100 -> 8.3m:146 -> 16.6m:191 -> 25m:237 -> 33.3m:283 -> 41.6m:329 -> 50m:374) -->
      <path d="M 80 100 L 174 146 L 269 191 L 363 237 L 458 283 L 552 329 L 647 374" fill="none" stroke="url(#gradListeria)" stroke-width="4" filter="url(#glowCyan)" />

      <!-- Salmonella Points -->
      <circle cx="80" cy="100" r="5" fill="#f43f5e" />
      <circle cx="216" cy="191" r="5" fill="#f43f5e" />
      <circle cx="352" cy="283" r="5" fill="#f43f5e" />
      <circle cx="556" cy="420" r="7" fill="#f43f5e" stroke="#0f172a" stroke-width="2" />
      <rect x="540" y="385" width="90" height="22" rx="4" fill="#881337" stroke="#f43f5e" />
      <text x="585" y="400" class="badge-mono" fill="#ffffff" text-anchor="middle">7D = 42.0 min</text>

      <!-- Listeria Points -->
      <circle cx="80" cy="100" r="5" fill="#0284c7" />
      <circle cx="269" cy="191" r="5" fill="#0284c7" />
      <circle cx="458" cy="283" r="5" fill="#0284c7" />
      <circle cx="647" cy="374" r="7" fill="#0284c7" stroke="#0f172a" stroke-width="2" />
      <rect x="635" y="340" width="90" height="22" rx="4" fill="#0369a1" stroke="#38bdf8" />
      <text x="680" y="355" class="badge-mono" fill="#ffffff" text-anchor="middle">6D = 50.0 min</text>
    </g>
  </g>

  <!-- ==================== SECCIÓN 3: MATRIZ MAESTRA DE VALORES D Y TIEMPOS ==================== -->
  <g transform="translate(36, 845)" filter="url(#cardShadow2)">
    <rect width="828" height="265" rx="12" fill="url(#cardGrad2)" stroke="#334155" stroke-width="1" />
    <text x="24" y="26" class="sec-title" fill="#F4A261">3. MATRIZ DE CINÉTICA DE INACTIVACIÓN POR TEMPERATURA (55°C A 70°C)</text>

    <!-- Table Container -->
    <g transform="translate(24, 40)">
      <!-- Header Row -->
      <rect x="0" y="0" width="780" height="30" rx="6" fill="#0f172a" stroke="#1e293b" />
      <text x="15" y="20" class="tick-mono" fill="#94a3b8" font-weight="700">TEMPERATURA</text>
      <text x="140" y="20" class="tick-mono" fill="#38bdf8" font-weight="700">D_T LISTERIA (z=7.5°C)</text>
      <text x="320" y="20" class="tick-mono" fill="#38bdf8" font-weight="700">TIEMPO 6D LISTERIA</text>
      <text x="490" y="20" class="tick-mono" fill="#f43f5e" font-weight="700">D_T SALMONELLA (z=5.5°C)</text>
      <text x="670" y="20" class="tick-mono" fill="#f43f5e" font-weight="700">TIEMPO 7D SALMONELLA</text>

      <!-- Row 1: 55.0°C -->
      <rect x="0" y="34" width="780" height="24" fill="#1e293b" fill-opacity="0.3" />
      <text x="15" y="50" class="tick-mono" fill="#f8fafc" font-weight="700">55.0°C</text>
      <text x="140" y="50" class="tick-mono" fill="#cbd5e1">18.7 min</text>
      <text x="320" y="50" class="tick-mono" fill="#38bdf8" font-weight="700">112.0 min (1h 52')</text>
      <text x="490" y="50" class="tick-mono" fill="#cbd5e1">19.3 min</text>
      <text x="670" y="50" class="tick-mono" fill="#f43f5e" font-weight="700">135.0 min (2h 15')</text>

      <!-- Row 2: 57.5°C -->
      <rect x="0" y="60" width="780" height="24" fill="#0f172a" fill-opacity="0.4" />
      <text x="15" y="76" class="tick-mono" fill="#f8fafc" font-weight="700">57.5°C</text>
      <text x="140" y="76" class="tick-mono" fill="#cbd5e1">5.3 min</text>
      <text x="320" y="76" class="tick-mono" fill="#38bdf8" font-weight="700">32.0 min</text>
      <text x="490" y="76" class="tick-mono" fill="#cbd5e1">5.4 min</text>
      <text x="670" y="76" class="tick-mono" fill="#f43f5e" font-weight="700">38.0 min</text>

      <!-- Row 3: 60.0°C (Base) -->
      <rect x="0" y="86" width="780" height="24" fill="#1e293b" fill-opacity="0.6" stroke="#0284c7" stroke-width="0.8" />
      <text x="15" y="102" class="tick-mono" fill="#F4A261" font-weight="700">60.0°C (Ref)</text>
      <text x="140" y="102" class="tick-mono" fill="#ffffff" font-weight="700">8.33 min</text>
      <text x="320" y="102" class="tick-mono" fill="#38bdf8" font-weight="700">50.0 min</text>
      <text x="490" y="102" class="tick-mono" fill="#ffffff" font-weight="700">6.00 min</text>
      <text x="670" y="102" class="tick-mono" fill="#f43f5e" font-weight="700">42.0 min</text>

      <!-- Row 4: 62.5°C -->
      <rect x="0" y="112" width="780" height="24" fill="#0f172a" fill-opacity="0.4" />
      <text x="15" y="128" class="tick-mono" fill="#f8fafc" font-weight="700">62.5°C</text>
      <text x="140" y="128" class="tick-mono" fill="#cbd5e1">1.9 min</text>
      <text x="320" y="128" class="tick-mono" fill="#38bdf8" font-weight="700">11.4 min</text>
      <text x="490" y="128" class="tick-mono" fill="#cbd5e1">1.7 min</text>
      <text x="670" y="128" class="tick-mono" fill="#f43f5e" font-weight="700">11.9 min</text>

      <!-- Row 5: 65.0°C -->
      <rect x="0" y="138" width="780" height="24" fill="#1e293b" fill-opacity="0.3" />
      <text x="15" y="154" class="tick-mono" fill="#f8fafc" font-weight="700">65.0°C</text>
      <text x="140" y="154" class="tick-mono" fill="#cbd5e1">0.45 min (27s)</text>
      <text x="320" y="154" class="tick-mono" fill="#38bdf8" font-weight="700">2.7 min</text>
      <text x="490" y="154" class="tick-mono" fill="#cbd5e1">0.48 min (29s)</text>
      <text x="670" y="154" class="tick-mono" fill="#f43f5e" font-weight="700">3.4 min</text>

      <!-- Row 6: 70.0°C -->
      <rect x="0" y="164" width="780" height="24" fill="#0f172a" fill-opacity="0.4" />
      <text x="15" y="180" class="tick-mono" fill="#f8fafc" font-weight="700">70.0°C</text>
      <text x="140" y="180" class="tick-mono" fill="#cbd5e1">&lt; 0.05 min (3s)</text>
      <text x="320" y="180" class="tick-mono" fill="#34d399" font-weight="700">&lt; 18 seg (Flash)</text>
      <text x="490" y="180" class="tick-mono" fill="#cbd5e1">&lt; 0.03 min (2s)</text>
      <text x="670" y="180" class="tick-mono" fill="#34d399" font-weight="700">&lt; 14 seg (Flash)</text>
    </g>
  </g>

  <!-- ==================== SECCIÓN 4: PATÓGENOS DIANA & HURDLE TECHNOLOGY ==================== -->
  <g transform="translate(36, 1125)" filter="url(#cardShadow2)">
    <rect width="828" height="305" rx="12" fill="url(#cardGrad2)" stroke="#334155" stroke-width="1" />
    <text x="24" y="26" class="sec-title" fill="#38bdf8">4. PATÓGENOS DIANA Y MATRIZ DE BARRERAS DE LEISTNER (HURDLE TECHNOLOGY)</text>

    <!-- 4 Pathogen Cards -->
    <g transform="translate(24, 38)">
      <!-- Listeria -->
      <rect x="0" y="0" width="185" height="105" rx="6" fill="#0b1120" stroke="#0284c7" stroke-width="0.8" />
      <text x="10" y="18" class="badge-mono" fill="#38bdf8">L. monocytogenes</text>
      <text x="10" y="34" class="tick-mono" fill="#94a3b8">Temp: -0.4°C a 45°C</text>
      <text x="10" y="50" class="tick-mono" fill="#cbd5e1">Vegetativo más resistente.</text>
      <text x="10" y="68" class="tick-mono" fill="#cbd5e1">Destrucción 6D asegura</text>
      <text x="10" y="86" class="tick-mono" fill="#34d399">inactivación E. coli / Yersinia</text>

      <!-- Salmonella -->
      <rect x="198" y="0" width="185" height="105" rx="6" fill="#0b1120" stroke="#e11d48" stroke-width="0.8" />
      <text x="208" y="18" class="badge-mono" fill="#fb7185">Salmonella enterica</text>
      <text x="208" y="34" class="tick-mono" fill="#94a3b8">Temp: 5.2°C a 46°C</text>
      <text x="208" y="50" class="tick-mono" fill="#cbd5e1">Exigencia legal 7D en aves.</text>
      <text x="208" y="68" class="tick-mono" fill="#cbd5e1">Alta prevalencia inicial.</text>
      <text x="208" y="86" class="tick-mono" fill="#f43f5e">T_núcleo mín ≥ 63.5°C x 18'</text>

      <!-- C. botulinum II -->
      <rect x="396" y="0" width="185" height="105" rx="6" fill="#0b1120" stroke="#f59e0b" stroke-width="0.8" />
      <text x="406" y="18" class="badge-mono" fill="#fbbf24">C. botulinum Tipo II</text>
      <text x="406" y="34" class="tick-mono" fill="#94a3b8">Temp: +3.0°C a 45°C</text>
      <text x="406" y="50" class="tick-mono" fill="#cbd5e1">Esporas psicrótrofas.</text>
      <text x="406" y="68" class="tick-mono" fill="#f59e0b">Sin olor ni gas visible.</text>
      <text x="406" y="86" class="tick-mono" fill="#34d399">Inhibido a T ≤ +2.5°C</text>

      <!-- S. aureus -->
      <rect x="594" y="0" width="185" height="105" rx="6" fill="#0b1120" stroke="#a855f7" stroke-width="0.8" />
      <text x="604" y="18" class="badge-mono" fill="#c084fc">S. aureus (Toxina)</text>
      <text x="604" y="34" class="tick-mono" fill="#94a3b8">Temp: 7.0°C a 48°C</text>
      <text x="604" y="50" class="tick-mono" fill="#cbd5e1">Enterotoxina termoestable</text>
      <text x="604" y="68" class="tick-mono" fill="#cbd5e1">resiste 100°C x 30 min.</text>
      <text x="604" y="86" class="tick-mono" fill="#f43f5e">Control estricto &lt;12°C previo</text>
    </g>

    <!-- 4 Hurdle Barriers -->
    <g transform="translate(24, 155)">
      <rect x="0" y="0" width="780" height="125" rx="6" fill="#0b1120" stroke="#1e293b" />
      <text x="14" y="22" class="card-title" font-size="12" fill="#F4A261">4 BARRERAS PRIMARIAS DE LEISTNER PARA ALMACENAMIENTO SEGURO EN VACÍO:</text>
      
      <g transform="translate(14, 34)">
        <text x="0" y="16" class="tick-mono" fill="#38bdf8" font-weight="700">1. TÉRMICA ESPORICIDA:</text>
        <text x="0" y="34" class="body-txt" font-size="11">≥ 90°C x 10 min en núcleo (o 85°C x 52 min).</text>
        <text x="0" y="52" class="tick-mono" fill="#64748b">Inactiva esporas Grupo II.</text>

        <text x="200" y="16" class="tick-mono" fill="#38bdf8" font-weight="700">2. ACIDIFICACIÓN:</text>
        <text x="200" y="34" class="body-txt" font-size="11">pH final ≤ 4.60 homogéneo.</text>
        <text x="200" y="52" class="tick-mono" fill="#64748b">Inhibe germinación total.</text>

        <text x="390" y="16" class="tick-mono" fill="#38bdf8" font-weight="700">3. ACTIVIDAD AGUA:</text>
        <text x="390" y="34" class="body-txt" font-size="11">aw ≤ 0.920 ó NaCl ≥ 3.5%.</text>
        <text x="390" y="52" class="tick-mono" fill="#64748b">Bloquea replicación celular.</text>

        <text x="580" y="16" class="tick-mono" fill="#38bdf8" font-weight="700">4. CADENA DE FRÍO:</text>
        <text x="580" y="34" class="body-txt" font-size="11">T ≤ +2.5°C ininterrumpida.</text>
        <text x="580" y="52" class="tick-mono" fill="#64748b">Máx 28 días con datalogger.</text>
      </g>
    </g>
  </g>

  <!-- ==================== FOOTER ==================== -->
  <g transform="translate(36, 1450)">
    <line x1="0" y1="0" x2="828" y2="0" stroke="#1e293b" stroke-width="1.2" />
    <text x="0" y="24" class="tick-mono" fill="#64748b" font-size="10">
      TOUCHEF SAFETY LAB · DOC: TC-INF-SV-02 · VER: 2.4.0 · ESTÁNDAR: FDA FOOD CODE ANNEX 3 / USDA 9 CFR § 381.150 / EFSA
    </text>
    <text x="828" y="24" class="tick-mono" fill="#E07A5F" font-size="10" font-weight="700" text-anchor="end">
      SEGURIDAD ALIMENTARIA © 2026
    </text>
  </g>
</svg>
